<svg xmlns="http://www.w3.org/2000/svg" xmlns:xlink="http://www.w3.org/1999/xlink" width="500" zoomAndPan="magnify" viewBox="0 0 375 374.999991" height="500" preserveAspectRatio="xMidYMid meet" version="1.2"><defs><clipPath id="857c1306fd"><path d="M 127 173 L 260 173 L 260 262.5 L 127 262.5 Z M 127 173 "/></clipPath></defs><g id="3bc86000e6"><rect x="0" width="375" y="0" height="374.999991" style="fill:#ffffff;fill-opacity:1;stroke:none;"/><rect x="0" width="375" y="0" height="374.999991" style="fill:#ffffff;fill-opacity:1;stroke:none;"/><path style=" stroke:none;fill-rule:nonzero;fill:#000000;fill-opacity:1;" d="M 223.808594 202.199219 C 223.960938 201.445312 224.5625 200.992188 225.320312 200.839844 L 231.515625 200.238281 C 233.78125 199.9375 235.597656 197.976562 235.597656 195.714844 L 235.597656 186.066406 C 235.597656 183.804688 233.78125 181.847656 231.515625 181.546875 L 225.320312 180.941406 C 224.5625 180.792969 223.960938 180.339844 223.808594 179.585938 C 223.203125 177.476562 222.296875 175.363281 221.238281 173.554688 C 220.9375 172.953125 220.9375 172.046875 221.390625 171.59375 L 225.320312 166.769531 C 226.832031 164.960938 226.679688 162.398438 225.015625 160.742188 L 218.066406 153.804688 C 216.402344 152.148438 213.832031 151.996094 212.019531 153.503906 L 207.183594 157.425781 C 206.578125 157.726562 205.824219 157.726562 205.21875 157.425781 C 203.253906 156.371094 201.289062 155.617188 199.171875 154.863281 C 198.417969 154.710938 197.964844 154.109375 197.8125 153.355469 L 197.058594 147.171875 C 196.753906 144.910156 194.789062 143.101562 192.523438 143.101562 L 182.851562 143.101562 C 180.585938 143.101562 178.621094 144.910156 178.316406 147.171875 L 177.710938 153.355469 C 177.5625 154.109375 177.109375 154.710938 176.351562 154.863281 C 174.238281 155.464844 172.121094 156.371094 170.308594 157.425781 C 169.703125 157.726562 168.796875 157.726562 168.34375 157.273438 L 163.507812 153.355469 C 161.691406 151.847656 159.125 151.996094 157.460938 153.65625 L 150.507812 160.589844 C 148.847656 162.25 148.695312 164.8125 150.207031 166.621094 L 154.136719 171.445312 C 154.589844 172.046875 154.589844 172.800781 154.289062 173.40625 C 153.230469 175.363281 152.472656 177.324219 151.71875 179.433594 C 151.566406 180.1875 150.960938 180.640625 150.207031 180.792969 L 143.859375 181.546875 C 141.59375 181.847656 139.777344 183.804688 139.777344 186.066406 L 139.777344 195.714844 C 139.777344 197.976562 141.59375 199.9375 143.859375 200.238281 L 150.054688 200.839844 C 150.8125 200.992188 151.414062 201.445312 151.566406 202.199219 C 152.171875 204.308594 153.078125 206.417969 154.136719 208.230469 C 154.4375 208.832031 154.4375 209.734375 153.984375 210.1875 L 150.054688 215.011719 C 148.542969 216.820312 148.695312 219.382812 150.359375 221.042969 L 157.308594 227.976562 C 158.972656 229.636719 161.542969 229.785156 163.355469 228.277344 L 168.191406 224.359375 C 168.796875 223.90625 169.550781 223.90625 170.15625 224.207031 C 172.121094 225.265625 174.085938 226.015625 176.203125 226.769531 C 176.957031 226.921875 177.410156 227.523438 177.5625 228.277344 L 178.167969 234.460938 C 178.46875 236.722656 180.433594 238.53125 182.699219 238.53125 L 192.371094 238.53125 C 194.640625 238.53125 196.605469 236.722656 196.90625 234.460938 L 197.511719 228.277344 C 197.664062 227.523438 198.117188 226.921875 198.871094 226.769531 C 200.988281 226.167969 203.101562 225.265625 204.917969 224.207031 C 205.519531 223.90625 206.429688 223.90625 206.882812 224.359375 L 211.71875 228.277344 C 213.53125 229.785156 216.101562 229.636719 217.761719 227.976562 L 224.714844 221.042969 C 226.378906 219.382812 226.527344 216.820312 225.015625 215.011719 L 221.085938 210.1875 C 220.9375 209.734375 220.9375 208.980469 221.238281 208.378906 C 222.296875 206.417969 223.050781 204.308594 223.808594 202.199219 Z M 187.6875 209.285156 C 177.5625 209.285156 169.25 200.992188 169.25 190.890625 C 169.25 180.792969 177.5625 172.5 187.6875 172.5 C 197.8125 172.5 206.125 180.792969 206.125 190.890625 C 206.125 200.992188 197.8125 209.285156 187.6875 209.285156 Z M 187.6875 209.285156 "/><path style=" stroke:none;fill-rule:nonzero;fill:#000000;fill-opacity:1;" d="M 143.105469 146.417969 C 166.832031 122.75 204.917969 121.996094 229.703125 144.007812 L 226.226562 147.476562 C 225.320312 148.378906 225.015625 149.734375 225.320312 150.941406 C 225.621094 152.148438 226.679688 153.054688 227.886719 153.203125 L 244.210938 156.066406 C 244.363281 156.066406 244.664062 156.066406 244.816406 156.066406 C 245.722656 156.066406 246.628906 155.765625 247.234375 155.011719 C 247.988281 154.257812 248.292969 153.054688 248.140625 151.996094 L 245.269531 135.714844 C 245.117188 134.511719 244.210938 133.453125 243 133.152344 C 241.792969 132.851562 240.433594 133.152344 239.527344 134.058594 L 235.898438 137.675781 C 207.636719 112.5 164.109375 113.101562 136.90625 140.238281 C 120.132812 156.972656 112.726562 180.941406 117.109375 204.160156 C 117.5625 206.269531 119.375 207.777344 121.339844 207.777344 C 121.644531 207.777344 121.945312 207.777344 122.097656 207.625 C 124.515625 207.171875 126.027344 204.910156 125.574219 202.5 C 121.792969 182.148438 128.292969 161.042969 143.105469 146.417969 Z M 143.105469 146.417969 "/><g clip-rule="nonzero" clip-path="url(#857c1306fd)"><path style=" stroke:none;fill-rule:nonzero;fill:#000000;fill-opacity:1;" d="M 258.265625 177.476562 C 257.8125 175.0625 255.546875 173.554688 253.128906 174.007812 C 250.710938 174.460938 249.199219 176.722656 249.652344 179.132812 C 253.582031 199.636719 247.082031 220.589844 232.269531 235.363281 C 208.542969 259.03125 170.457031 259.785156 145.671875 237.777344 L 149.148438 234.308594 C 150.054688 233.40625 150.359375 232.046875 150.054688 230.839844 C 149.601562 229.636719 148.695312 228.730469 147.488281 228.582031 L 131.316406 225.714844 C 130.257812 225.566406 129.046875 225.867188 128.292969 226.621094 C 127.539062 227.375 127.082031 228.582031 127.386719 229.636719 L 130.257812 245.917969 C 130.558594 247.125 131.316406 248.179688 132.523438 248.480469 C 132.828125 248.628906 133.128906 248.628906 133.582031 248.628906 C 134.488281 248.628906 135.394531 248.328125 136 247.574219 L 139.628906 243.957031 C 153.230469 256.320312 170.457031 262.5 187.6875 262.5 C 206.125 262.5 224.414062 255.566406 238.46875 241.546875 C 255.242188 224.8125 262.648438 200.839844 258.265625 177.476562 Z M 258.265625 177.476562 "/></g><g style="fill:#000000;fill-opacity:1;"><g transform="translate(204.631017, 209.980371)"><path style="stroke:none" d="M 9.984375 0.3125 C 7.453125 0.3125 5.453125 -0.457031 3.984375 -2 C 2.523438 -3.539062 1.796875 -5.679688 1.796875 -8.421875 C 1.796875 -11.179688 2.472656 -13.375 3.828125 -15 C 5.191406 -16.625 7.019531 -17.4375 9.3125 -17.4375 C 11.457031 -17.4375 13.15625 -16.726562 14.40625 -15.3125 C 15.65625 -13.90625 16.28125 -12.046875 16.28125 -9.734375 L 16.28125 -8.09375 L 4.484375 -8.09375 C 4.535156 -6.082031 5.039062 -4.554688 6 -3.515625 C 6.96875 -2.472656 8.328125 -1.953125 10.078125 -1.953125 C 11.921875 -1.953125 13.742188 -2.335938 15.546875 -3.109375 L 15.546875 -0.796875 C 14.628906 -0.398438 13.757812 -0.117188 12.9375 0.046875 C 12.125 0.222656 11.140625 0.3125 9.984375 0.3125 Z M 9.28125 -15.265625 C 7.90625 -15.265625 6.804688 -14.816406 5.984375 -13.921875 C 5.171875 -13.023438 4.691406 -11.785156 4.546875 -10.203125 L 13.5 -10.203125 C 13.5 -11.835938 13.132812 -13.085938 12.40625 -13.953125 C 11.675781 -14.828125 10.632812 -15.265625 9.28125 -15.265625 Z M 9.28125 -15.265625 "/></g></g></g></svg>