<svg xmlns="http://www.w3.org/2000/svg" xmlns:xlink="http://www.w3.org/1999/xlink" width="120" zoomAndPan="magnify" viewBox="0 0 90 89.999999" height="120" preserveAspectRatio="xMidYMid meet" version="1.2"><defs><clipPath id="6801b88de2"><path d="M 7 6.207031 L 84.640625 6.207031 L 84.640625 84.957031 L 7 84.957031 Z M 7 6.207031 "/></clipPath></defs><g id="8b1c54db53"><g clip-rule="nonzero" clip-path="url(#6801b88de2)"><path style=" stroke:none;fill-rule:evenodd;fill:#000000;fill-opacity:1;" d="M 65.0625 32.054688 L 71.535156 32.054688 C 72.152344 32.054688 72.652344 32.550781 72.652344 33.167969 C 72.652344 33.785156 72.152344 34.285156 71.535156 34.285156 L 65.0625 34.285156 C 64.445312 34.285156 63.941406 33.785156 63.941406 33.167969 C 63.941406 32.550781 64.445312 32.054688 65.0625 32.054688 Z M 58.582031 20.25 C 58.144531 19.816406 58.144531 19.109375 58.582031 18.671875 L 63.160156 14.105469 C 63.597656 13.667969 64.304688 13.667969 64.742188 14.105469 C 65.175781 14.539062 65.175781 15.246094 64.742188 15.683594 L 60.164062 20.25 C 59.726562 20.6875 59.019531 20.6875 58.582031 20.25 Z M 18.632812 33.167969 C 18.632812 32.554688 19.132812 32.054688 19.75 32.054688 L 26.222656 32.054688 C 26.839844 32.054688 27.339844 32.550781 27.339844 33.167969 C 27.339844 33.785156 26.839844 34.285156 26.222656 34.285156 L 19.75 34.285156 C 19.132812 34.285156 18.632812 33.785156 18.632812 33.167969 Z M 26.542969 15.683594 C 26.105469 15.246094 26.105469 14.539062 26.542969 14.105469 C 26.980469 13.667969 27.6875 13.667969 28.125 14.105469 L 32.699219 18.671875 C 33.410156 19.378906 32.898438 20.578125 31.910156 20.578125 C 31.625 20.578125 31.339844 20.46875 31.121094 20.25 Z M 44.523438 13.785156 L 44.523438 7.324219 C 44.523438 6.707031 45.023438 6.207031 45.640625 6.207031 C 46.257812 6.207031 46.757812 6.707031 46.757812 7.324219 L 46.757812 13.785156 C 46.757812 14.402344 46.261719 14.898438 45.640625 14.898438 C 45.023438 14.898438 44.523438 14.402344 44.523438 13.785156 Z M 45.640625 20.09375 C 50.890625 20.09375 55.15625 23.9375 55.15625 28.667969 C 55.15625 30.644531 54.390625 32.578125 53 34.105469 C 51.003906 36.292969 50.453125 37.824219 49.445312 40.394531 C 49.296875 40.375 49.148438 40.359375 49 40.359375 L 42.285156 40.359375 C 42.132812 40.359375 41.984375 40.375 41.839844 40.394531 C 40.832031 37.824219 40.277344 36.292969 38.285156 34.105469 C 36.890625 32.578125 36.125 30.644531 36.125 28.667969 C 36.125 23.9375 40.394531 20.09375 45.640625 20.09375 Z M 46.792969 48.570312 L 44.492188 48.570312 C 43.503906 48.570312 42.710938 47.78125 42.710938 46.757812 L 48.574219 46.757812 C 48.574219 47.78125 47.78125 48.570312 46.792969 48.570312 Z M 49.96875 43.558594 C 49.96875 44.089844 49.535156 44.527344 49 44.527344 L 42.285156 44.527344 C 41.75 44.527344 41.316406 44.089844 41.316406 43.558594 C 41.316406 43.027344 41.75 42.589844 42.285156 42.589844 L 49 42.589844 C 49.535156 42.589844 49.96875 43.027344 49.96875 43.558594 Z M 39.140625 39.636719 L 39.863281 41.472656 C 38.609375 42.917969 38.898438 45.117188 40.472656 46.195312 L 40.472656 46.792969 C 40.472656 49 42.273438 50.800781 44.492188 50.800781 L 46.792969 50.800781 C 49.007812 50.800781 50.808594 49 50.808594 46.792969 L 50.808594 46.195312 C 52.386719 45.113281 52.675781 42.917969 51.421875 41.472656 C 52.359375 39.089844 52.820312 37.621094 54.652344 35.605469 C 56.421875 33.667969 57.394531 31.203125 57.394531 28.667969 C 57.394531 22.707031 52.121094 17.859375 45.640625 17.859375 C 39.160156 17.859375 33.890625 22.707031 33.890625 28.667969 C 33.890625 31.203125 34.863281 33.667969 36.628906 35.605469 C 37.757812 36.84375 38.53125 38.085938 39.140625 39.636719 Z M 81.40625 80.78125 C 81.027344 81.058594 80.757812 81.234375 80.226562 81.140625 C 79.847656 81.074219 79.570312 80.894531 79.355469 80.574219 C 77.308594 77.527344 74.589844 75.152344 71.042969 73.304688 C 70.304688 72.917969 69.414062 73.453125 69.410156 74.285156 L 69.367188 82.320312 C 69.367188 82.535156 69.183594 82.722656 68.964844 82.722656 L 59.21875 82.722656 C 59 82.722656 58.816406 82.535156 58.816406 82.320312 L 58.816406 69.515625 C 58.816406 69.046875 58.519531 68.625 58.074219 68.464844 C 53.238281 66.742188 49.597656 63.785156 46.953125 59.429688 C 46.585938 58.824219 46.757812 58.042969 47.34375 57.648438 C 47.746094 57.378906 48.019531 57.222656 48.539062 57.335938 C 48.917969 57.417969 49.1875 57.613281 49.386719 57.941406 C 54.207031 65.824219 62.722656 68.277344 70.234375 70.4375 C 75.132812 71.949219 78.894531 74.746094 81.722656 78.984375 C 82.117188 79.570312 81.976562 80.359375 81.40625 80.78125 Z M 44.332031 59.429688 C 41.683594 63.785156 38.046875 66.742188 33.210938 68.464844 C 32.765625 68.625 32.46875 69.046875 32.46875 69.515625 L 32.46875 82.320312 C 32.46875 82.535156 32.285156 82.722656 32.066406 82.722656 L 22.320312 82.722656 C 22.101562 82.722656 21.917969 82.535156 21.917969 82.3125 L 21.875 74.285156 C 21.871094 73.445312 20.972656 72.921875 20.238281 73.304688 C 16.695312 75.152344 13.976562 77.527344 11.929688 80.574219 C 11.507812 81.207031 10.65625 81.355469 10.042969 80.902344 L 9.878906 80.78125 C 9.308594 80.359375 9.167969 79.570312 9.5625 78.984375 C 12.390625 74.746094 16.148438 71.949219 21.050781 70.4375 C 28.5625 68.277344 37.078125 65.824219 41.894531 57.941406 C 42.292969 57.289062 43.132812 57.105469 43.765625 57.53125 L 43.9375 57.648438 C 44.527344 58.042969 44.699219 58.824219 44.332031 59.429688 Z M 83.582031 77.746094 C 80.496094 73.125 76.226562 69.949219 70.882812 68.300781 C 70.875 68.300781 70.871094 68.296875 70.863281 68.292969 C 63.390625 66.148438 55.664062 63.925781 51.296875 56.777344 C 50.234375 55.042969 47.960938 54.546875 46.269531 55.679688 L 45.640625 56.164062 C 44.730469 55.308594 43.523438 54.882812 42.265625 55.15625 C 41.292969 55.367188 40.507812 55.929688 39.988281 56.777344 C 35.617188 63.925781 27.890625 66.148438 20.421875 68.292969 C 20.414062 68.296875 20.40625 68.300781 20.398438 68.300781 C 15.058594 69.949219 10.785156 73.125 7.699219 77.746094 C 6.644531 79.324219 7.015625 81.449219 8.550781 82.574219 C 9.445312 83.234375 10.300781 83.539062 11.441406 83.339844 C 12.421875 83.171875 13.230469 82.644531 13.785156 81.820312 C 15.296875 79.570312 17.222656 77.722656 19.648438 76.210938 L 19.683594 82.320312 C 19.683594 83.773438 20.863281 84.953125 22.320312 84.953125 L 32.066406 84.953125 C 33.519531 84.953125 34.703125 83.773438 34.703125 82.320312 L 34.703125 70.289062 C 39.269531 68.503906 42.941406 65.5625 45.640625 61.523438 C 48.34375 65.5625 52.015625 68.503906 56.578125 70.289062 L 56.578125 82.320312 C 56.578125 83.773438 57.761719 84.953125 59.21875 84.953125 L 68.964844 84.953125 C 70.417969 84.953125 71.601562 83.773438 71.601562 82.328125 L 71.632812 76.207031 C 74.058594 77.722656 75.984375 79.570312 77.496094 81.820312 C 78.628906 83.503906 80.929688 83.90625 82.566406 82.699219 L 82.734375 82.574219 C 84.265625 81.449219 84.640625 79.324219 83.582031 77.746094 Z M 67.453125 62.085938 C 69.84375 62.085938 71.785156 60.148438 71.785156 57.761719 C 71.785156 55.378906 69.84375 53.4375 67.453125 53.4375 C 65.0625 53.4375 63.121094 55.378906 63.121094 57.761719 C 63.121094 60.148438 65.0625 62.085938 67.453125 62.085938 Z M 67.453125 51.207031 C 63.832031 51.207031 60.886719 54.148438 60.886719 57.761719 C 60.886719 61.378906 63.832031 64.320312 67.453125 64.320312 C 71.074219 64.320312 74.023438 61.378906 74.023438 57.761719 C 74.023438 54.148438 71.074219 51.207031 67.453125 51.207031 Z M 23.832031 53.4375 C 21.441406 53.4375 19.5 55.378906 19.5 57.761719 C 19.5 60.148438 21.441406 62.085938 23.832031 62.085938 C 26.21875 62.085938 28.164062 60.148438 28.164062 57.761719 C 28.164062 55.378906 26.21875 53.4375 23.832031 53.4375 Z M 23.832031 64.320312 C 27.453125 64.320312 30.398438 61.378906 30.398438 57.761719 C 30.398438 54.148438 27.453125 51.207031 23.832031 51.207031 C 20.210938 51.207031 17.261719 54.148438 17.261719 57.761719 C 17.261719 61.378906 20.210938 64.320312 23.832031 64.320312 Z M 23.832031 64.320312 "/></g><g style="fill:#000000;fill-opacity:1;"><g transform="translate(60.419419, 40.163349)"><path style="stroke:none" d="M 0.84375 0.03125 C 0.625 0.03125 0.453125 -0.03125 0.328125 -0.15625 C 0.210938 -0.289062 0.15625 -0.472656 0.15625 -0.703125 C 0.15625 -0.941406 0.210938 -1.128906 0.328125 -1.265625 C 0.441406 -1.398438 0.59375 -1.46875 0.78125 -1.46875 C 0.957031 -1.46875 1.097656 -1.40625 1.203125 -1.28125 C 1.316406 -1.164062 1.375 -1.007812 1.375 -0.8125 L 1.375 -0.6875 L 0.375 -0.6875 C 0.382812 -0.507812 0.425781 -0.375 0.5 -0.28125 C 0.582031 -0.195312 0.695312 -0.15625 0.84375 -0.15625 C 1 -0.15625 1.15625 -0.191406 1.3125 -0.265625 L 1.3125 -0.0625 C 1.226562 -0.03125 1.148438 -0.0078125 1.078125 0 C 1.015625 0.0195312 0.9375 0.03125 0.84375 0.03125 Z M 0.78125 -1.28125 C 0.664062 -1.28125 0.570312 -1.242188 0.5 -1.171875 C 0.4375 -1.097656 0.394531 -0.992188 0.375 -0.859375 L 1.140625 -0.859375 C 1.140625 -0.992188 1.109375 -1.097656 1.046875 -1.171875 C 0.984375 -1.242188 0.894531 -1.28125 0.78125 -1.28125 Z M 0.78125 -1.28125 "/></g></g></g></svg>