<svg xmlns="http://www.w3.org/2000/svg" xmlns:xlink="http://www.w3.org/1999/xlink" width="120" zoomAndPan="magnify" viewBox="0 0 90 89.999999" height="120" preserveAspectRatio="xMidYMid meet" version="1.2"><defs><clipPath id="ec8a8c02bf"><path d="M 18 72 L 66 72 L 66 84.808594 L 18 84.808594 Z M 18 72 "/></clipPath><clipPath id="ee60d3529c"><path d="M 73 25 L 84.808594 25 L 84.808594 70 L 73 70 Z M 73 25 "/></clipPath></defs><g id="063af1f6d0"><rect x="0" width="90" y="0" height="89.999999" style="fill:#ffffff;fill-opacity:1;stroke:none;"/><rect x="0" width="90" y="0" height="89.999999" style="fill:#ffffff;fill-opacity:1;stroke:none;"/><g clip-rule="nonzero" clip-path="url(#ec8a8c02bf)"><path style=" stroke:none;fill-rule:nonzero;fill:#040606;fill-opacity:1;" d="M 64.851562 79.410156 C 65.480469 79.03125 65.601562 78.28125 65.222656 77.652344 C 64.851562 77.027344 64.222656 76.898438 63.597656 77.277344 C 50.539062 84.808594 34.601562 83.929688 22.546875 75.144531 L 24.9375 74.894531 C 25.558594 74.765625 26.0625 74.136719 26.0625 73.511719 C 25.933594 72.753906 25.308594 72.253906 24.679688 72.253906 L 19.28125 72.882812 C 18.652344 73.011719 18.15625 73.640625 18.15625 74.265625 L 18.78125 79.65625 C 18.910156 80.414062 19.539062 80.792969 20.164062 80.792969 C 20.792969 80.664062 21.292969 80.035156 21.292969 79.410156 L 21.042969 77.027344 C 28.066406 82.167969 36.355469 84.808594 44.769531 84.808594 C 51.664062 84.808594 58.574219 83.046875 64.851562 79.410156 "/></g><path style=" stroke:none;fill-rule:nonzero;fill:#040606;fill-opacity:1;" d="M 15.765625 23.425781 C 15.894531 24.054688 16.394531 24.554688 17.148438 24.554688 C 17.777344 24.433594 18.40625 23.925781 18.277344 23.175781 L 17.777344 17.777344 C 17.648438 17.152344 17.148438 16.644531 16.394531 16.644531 L 10.875 17.152344 C 10.246094 17.273438 9.617188 17.777344 9.738281 18.527344 C 9.867188 19.28125 10.367188 19.660156 11.125 19.660156 L 13.382812 19.53125 C 3.34375 32.082031 1.710938 49.664062 9.367188 63.847656 C 9.738281 64.476562 10.496094 64.726562 11.125 64.347656 C 11.75 63.976562 11.878906 63.21875 11.621094 62.722656 C 4.347656 49.285156 5.972656 32.71875 15.515625 20.917969 L 15.765625 23.425781 "/><path style=" stroke:none;fill-rule:nonzero;fill:#040606;fill-opacity:1;" d="M 73.011719 16.523438 L 72.511719 11.125 C 72.382812 10.367188 71.753906 9.871094 71.128906 9.992188 C 70.5 10.117188 69.871094 10.617188 70 11.375 L 70.242188 13.636719 C 58.070312 3.59375 41.125 1.582031 26.8125 8.734375 C 26.191406 9.113281 25.933594 9.871094 26.3125 10.496094 C 26.691406 11.125 27.320312 11.246094 27.945312 10.996094 C 41.375 4.222656 57.320312 6.105469 68.867188 15.640625 L 66.234375 15.894531 C 65.601562 16.015625 64.980469 16.523438 65.101562 17.273438 C 65.230469 17.898438 65.730469 18.40625 66.355469 18.40625 C 66.484375 18.40625 66.605469 18.40625 71.875 17.898438 C 72.632812 17.777344 73.132812 17.152344 73.011719 16.523438 "/><g clip-rule="nonzero" clip-path="url(#ee60d3529c)"><path style=" stroke:none;fill-rule:nonzero;fill:#040606;fill-opacity:1;" d="M 78.53125 25.308594 C 77.902344 25.679688 77.773438 26.4375 78.03125 26.933594 C 84.425781 38.867188 83.808594 53.300781 76.648438 64.597656 L 76.398438 62.59375 C 76.277344 61.957031 75.769531 61.457031 75.019531 61.457031 C 74.386719 61.585938 73.765625 62.085938 73.886719 62.84375 L 74.386719 68.242188 C 74.386719 68.617188 74.644531 68.867188 74.894531 69.117188 C 75.140625 69.246094 75.390625 69.367188 75.640625 69.367188 C 75.769531 69.367188 76.019531 69.367188 81.167969 68.867188 C 81.796875 68.738281 82.421875 68.242188 82.300781 67.484375 C 82.175781 66.734375 81.667969 66.359375 80.917969 66.359375 L 78.152344 66.609375 C 86.316406 54.425781 87.066406 38.738281 80.164062 25.679688 C 79.914062 25.179688 79.15625 24.929688 78.53125 25.308594 "/></g><path style=" stroke:none;fill-rule:nonzero;fill:#040606;fill-opacity:1;" d="M 61.457031 49.15625 C 61.085938 50.660156 60.453125 52.046875 59.832031 53.300781 C 59.582031 53.804688 59.582031 54.304688 59.953125 54.675781 L 64.472656 60.582031 L 60.707031 64.347656 L 54.8125 59.832031 C 54.433594 59.574219 53.804688 59.449219 53.425781 59.703125 C 52.171875 60.453125 50.796875 60.960938 49.285156 61.457031 C 48.785156 61.585938 48.40625 61.957031 48.40625 62.464844 L 47.402344 69.875 L 42.128906 69.875 L 41.125 62.464844 C 40.996094 61.957031 40.746094 61.585938 40.25 61.457031 C 38.742188 61.085938 37.359375 60.453125 36.105469 59.703125 C 35.726562 59.449219 35.097656 59.449219 34.722656 59.832031 L 28.824219 64.347656 L 25.058594 60.582031 L 29.578125 54.683594 C 29.828125 54.304688 29.957031 53.679688 29.699219 53.300781 C 28.953125 52.046875 28.445312 50.660156 28.066406 49.15625 C 27.945312 48.65625 27.566406 48.28125 27.070312 48.28125 L 19.660156 47.273438 L 19.660156 42.003906 L 27.070312 41 C 27.566406 40.871094 27.945312 40.621094 28.066406 40.121094 C 28.445312 38.738281 29.074219 37.359375 29.699219 35.976562 C 29.957031 35.480469 29.957031 34.972656 29.578125 34.59375 L 25.058594 28.695312 L 28.824219 24.929688 L 34.722656 29.453125 C 35.097656 29.703125 35.726562 29.832031 36.105469 29.574219 C 37.359375 28.824219 38.742188 28.320312 40.25 27.820312 C 40.746094 27.699219 41.125 27.320312 41.125 26.8125 L 42.128906 19.410156 L 47.402344 19.410156 L 48.40625 26.8125 C 48.535156 27.320312 48.785156 27.691406 49.285156 27.820312 C 50.796875 28.199219 52.171875 28.824219 53.425781 29.574219 C 53.804688 29.832031 54.433594 29.832031 54.8125 29.453125 L 60.707031 24.929688 L 64.472656 28.695312 L 59.832031 34.59375 C 59.582031 34.972656 59.453125 35.601562 59.703125 35.976562 C 60.453125 37.234375 60.957031 38.617188 61.457031 40.121094 C 61.585938 40.621094 61.964844 41 62.460938 41 L 69.871094 42.003906 L 69.871094 47.273438 L 62.460938 48.28125 C 62.089844 48.28125 61.585938 48.65625 61.457031 49.15625 Z M 71.378906 49.65625 C 72.003906 49.535156 72.511719 49.035156 72.511719 48.402344 L 72.511719 40.871094 C 72.511719 40.242188 72.003906 39.742188 71.378906 39.613281 L 63.71875 38.617188 C 63.347656 37.484375 62.96875 36.476562 62.460938 35.472656 L 67.234375 29.324219 C 67.613281 28.824219 67.613281 28.070312 67.113281 27.691406 L 61.835938 22.421875 C 61.335938 21.914062 60.707031 21.914062 60.203125 22.292969 L 54.054688 27.0625 C 53.050781 26.5625 52.050781 26.058594 50.917969 25.808594 L 49.789062 18.027344 C 49.660156 17.398438 49.15625 16.894531 48.535156 16.894531 L 40.996094 16.894531 C 40.371094 16.894531 39.871094 17.398438 39.742188 18.027344 L 38.742188 25.6875 C 37.609375 26.066406 36.605469 26.4375 35.597656 26.941406 L 29.449219 22.171875 C 28.953125 21.792969 28.195312 21.792969 27.816406 22.292969 L 22.546875 27.570312 C 22.046875 28.070312 22.046875 28.695312 22.417969 29.195312 L 27.191406 35.351562 C 26.691406 36.355469 26.183594 37.359375 25.933594 38.488281 L 18.15625 39.613281 C 17.527344 39.742188 17.019531 40.25 17.019531 40.871094 L 17.019531 48.402344 C 17.019531 49.035156 17.527344 49.535156 18.15625 49.65625 L 25.8125 50.660156 C 26.183594 51.796875 26.5625 52.800781 27.070312 53.804688 L 22.296875 59.953125 C 21.921875 60.453125 21.921875 61.207031 22.417969 61.585938 L 27.695312 66.855469 C 28.195312 67.363281 28.824219 67.363281 29.324219 66.984375 L 35.476562 62.214844 C 36.484375 62.714844 37.488281 63.210938 38.613281 63.46875 L 39.621094 71.128906 C 39.742188 71.757812 40.25 72.253906 40.875 72.253906 L 48.40625 72.253906 C 49.035156 72.253906 49.535156 71.757812 49.660156 71.128906 L 50.667969 63.46875 C 51.792969 63.089844 52.800781 62.714844 53.804688 62.214844 L 59.953125 66.984375 C 60.453125 67.363281 61.207031 67.363281 61.585938 66.855469 L 66.855469 61.585938 C 67.363281 61.085938 67.363281 60.453125 66.984375 59.953125 L 62.339844 53.804688 C 62.839844 52.800781 63.347656 51.796875 63.597656 50.660156 L 71.378906 49.65625 "/><path style=" stroke:none;fill-rule:nonzero;fill:#040606;fill-opacity:1;" d="M 44.761719 51.546875 C 40.617188 51.546875 37.230469 48.152344 37.230469 44.015625 C 37.230469 39.871094 40.617188 36.476562 44.761719 36.476562 C 48.90625 36.476562 52.300781 39.871094 52.300781 44.015625 C 52.300781 48.152344 48.90625 51.546875 44.761719 51.546875 Z M 44.761719 33.84375 C 39.242188 33.84375 34.722656 38.359375 34.722656 43.886719 C 34.722656 49.40625 39.242188 53.925781 44.761719 53.925781 C 50.289062 53.925781 54.8125 49.40625 54.8125 43.886719 C 54.8125 38.359375 50.289062 33.84375 44.761719 33.84375 "/><g style="fill:#000000;fill-opacity:1;"><g transform="translate(60.419419, 40.163349)"><path style="stroke:none" d="M 0.84375 0.03125 C 0.625 0.03125 0.453125 -0.03125 0.328125 -0.15625 C 0.210938 -0.289062 0.15625 -0.472656 0.15625 -0.703125 C 0.15625 -0.941406 0.210938 -1.128906 0.328125 -1.265625 C 0.441406 -1.398438 0.59375 -1.46875 0.78125 -1.46875 C 0.957031 -1.46875 1.097656 -1.40625 1.203125 -1.28125 C 1.316406 -1.164062 1.375 -1.007812 1.375 -0.8125 L 1.375 -0.6875 L 0.375 -0.6875 C 0.382812 -0.507812 0.425781 -0.375 0.5 -0.28125 C 0.582031 -0.195312 0.695312 -0.15625 0.84375 -0.15625 C 1 -0.15625 1.15625 -0.191406 1.3125 -0.265625 L 1.3125 -0.0625 C 1.226562 -0.03125 1.148438 -0.0078125 1.078125 0 C 1.015625 0.0195312 0.9375 0.03125 0.84375 0.03125 Z M 0.78125 -1.28125 C 0.664062 -1.28125 0.570312 -1.242188 0.5 -1.171875 C 0.4375 -1.097656 0.394531 -0.992188 0.375 -0.859375 L 1.140625 -0.859375 C 1.140625 -0.992188 1.109375 -1.097656 1.046875 -1.171875 C 0.984375 -1.242188 0.894531 -1.28125 0.78125 -1.28125 Z M 0.78125 -1.28125 "/></g></g></g></svg>