<svg xmlns="http://www.w3.org/2000/svg" xmlns:xlink="http://www.w3.org/1999/xlink" width="120" zoomAndPan="magnify" viewBox="0 0 90 89.999999" height="120" preserveAspectRatio="xMidYMid meet" version="1.2"><defs><clipPath id="43643f0149"><path d="M 5.390625 5.390625 L 83.390625 5.390625 L 83.390625 83.390625 L 5.390625 83.390625 Z M 5.390625 5.390625 "/></clipPath></defs><g id="3a936d3041"><g clip-rule="nonzero" clip-path="url(#43643f0149)"><path style=" stroke:none;fill-rule:nonzero;fill:#000000;fill-opacity:1;" d="M 79.113281 47.019531 C 77.664062 47.019531 76.488281 45.839844 76.488281 44.390625 C 76.488281 42.945312 77.664062 41.765625 79.113281 41.765625 C 80.5625 41.765625 81.738281 42.945312 81.738281 44.390625 C 81.738281 45.839844 80.5625 47.019531 79.113281 47.019531 Z M 44.390625 62.9375 C 34.164062 62.9375 25.84375 54.621094 25.84375 44.390625 C 25.84375 34.164062 34.164062 25.84375 44.390625 25.84375 C 54.621094 25.84375 62.9375 34.164062 62.9375 44.390625 C 62.9375 54.621094 54.621094 62.9375 44.390625 62.9375 Z M 70.800781 67.085938 C 71.824219 68.109375 71.824219 69.777344 70.800781 70.800781 C 69.777344 71.824219 68.109375 71.824219 67.085938 70.800781 C 66.0625 69.777344 66.0625 68.109375 67.085938 67.085938 C 68.109375 66.0625 69.777344 66.0625 70.800781 67.085938 Z M 47.019531 79.113281 C 47.019531 80.5625 45.839844 81.738281 44.390625 81.738281 C 42.945312 81.738281 41.765625 80.5625 41.765625 79.113281 C 41.765625 77.664062 42.945312 76.488281 44.390625 76.488281 C 45.839844 76.488281 47.019531 77.664062 47.019531 79.113281 Z M 21.699219 70.800781 C 20.675781 71.824219 19.007812 71.824219 17.984375 70.800781 C 16.960938 69.777344 16.960938 68.109375 17.984375 67.085938 C 19.007812 66.0625 20.675781 66.0625 21.699219 67.085938 C 22.722656 68.109375 22.722656 69.777344 21.699219 70.800781 Z M 9.671875 47.019531 C 8.226562 47.019531 7.046875 45.839844 7.046875 44.390625 C 7.046875 42.945312 8.226562 41.765625 9.671875 41.765625 C 11.121094 41.765625 12.296875 42.945312 12.296875 44.390625 C 12.296875 45.839844 11.121094 47.019531 9.671875 47.019531 Z M 17.984375 21.699219 C 17.488281 21.203125 17.214844 20.542969 17.214844 19.839844 C 17.214844 19.140625 17.488281 18.480469 17.984375 17.984375 C 18.496094 17.472656 19.167969 17.21875 19.84375 17.21875 C 20.515625 17.21875 21.1875 17.472656 21.699219 17.984375 C 22.195312 18.480469 22.46875 19.140625 22.46875 19.839844 C 22.46875 20.542969 22.195312 21.203125 21.699219 21.699219 C 21.203125 22.195312 20.542969 22.46875 19.84375 22.46875 C 19.140625 22.46875 18.480469 22.195312 17.984375 21.699219 Z M 41.765625 9.671875 C 41.765625 8.222656 42.945312 7.046875 44.390625 7.046875 C 45.839844 7.046875 47.019531 8.222656 47.019531 9.671875 C 47.019531 11.121094 45.839844 12.296875 44.390625 12.296875 C 42.945312 12.296875 41.765625 11.121094 41.765625 9.671875 Z M 67.085938 17.984375 C 67.597656 17.472656 68.269531 17.21875 68.945312 17.21875 C 69.617188 17.21875 70.289062 17.472656 70.800781 17.984375 C 71.296875 18.480469 71.570312 19.140625 71.570312 19.839844 C 71.570312 20.542969 71.296875 21.203125 70.800781 21.699219 C 70.304688 22.195312 69.644531 22.46875 68.945312 22.46875 C 68.242188 22.46875 67.582031 22.195312 67.085938 21.699219 C 66.589844 21.203125 66.316406 20.542969 66.316406 19.839844 C 66.316406 19.140625 66.589844 18.480469 67.085938 17.984375 Z M 79.113281 40.113281 C 77.035156 40.113281 75.300781 41.601562 74.914062 43.566406 L 64.574219 43.566406 C 64.375 38.617188 62.386719 34.125 59.242188 30.710938 L 66.558594 23.394531 C 67.257812 23.867188 68.082031 24.121094 68.945312 24.121094 C 70.085938 24.121094 71.160156 23.675781 71.96875 22.867188 C 72.777344 22.058594 73.222656 20.984375 73.222656 19.839844 C 73.222656 18.699219 72.777344 17.625 71.96875 16.816406 C 70.300781 15.148438 67.585938 15.144531 65.917969 16.816406 C 65.109375 17.625 64.664062 18.699219 64.664062 19.839844 C 64.664062 20.703125 64.917969 21.527344 65.386719 22.226562 L 58.074219 29.542969 C 54.660156 26.398438 50.167969 24.410156 45.21875 24.210938 L 45.21875 13.871094 C 47.183594 13.484375 48.671875 11.75 48.671875 9.671875 C 48.671875 7.3125 46.753906 5.390625 44.390625 5.390625 C 42.03125 5.390625 40.113281 7.3125 40.113281 9.671875 C 40.113281 11.75 41.601562 13.484375 43.566406 13.871094 L 43.566406 24.210938 C 38.617188 24.410156 34.125 26.398438 30.710938 29.542969 L 23.394531 22.226562 C 23.867188 21.527344 24.121094 20.703125 24.121094 19.839844 C 24.121094 18.699219 23.675781 17.625 22.867188 16.816406 C 21.199219 15.148438 18.484375 15.144531 16.816406 16.816406 C 16.007812 17.625 15.5625 18.699219 15.5625 19.839844 C 15.5625 20.984375 16.007812 22.058594 16.816406 22.867188 C 17.625 23.675781 18.699219 24.121094 19.84375 24.121094 C 20.703125 24.121094 21.527344 23.867188 22.226562 23.394531 L 29.542969 30.710938 C 26.398438 34.125 24.410156 38.617188 24.210938 43.566406 L 13.871094 43.566406 C 13.484375 41.601562 11.75 40.113281 9.671875 40.113281 C 7.3125 40.113281 5.390625 42.03125 5.390625 44.390625 C 5.390625 46.753906 7.3125 48.671875 9.671875 48.671875 C 11.75 48.671875 13.484375 47.183594 13.871094 45.21875 L 24.210938 45.21875 C 24.410156 50.167969 26.398438 54.660156 29.542969 58.070312 L 22.226562 65.390625 C 20.5625 64.273438 18.285156 64.449219 16.816406 65.917969 C 15.148438 67.585938 15.148438 70.300781 16.816406 71.96875 C 17.648438 72.804688 18.746094 73.222656 19.839844 73.222656 C 20.9375 73.222656 22.035156 72.804688 22.867188 71.96875 C 24.335938 70.5 24.511719 68.222656 23.394531 66.558594 L 30.710938 59.242188 C 34.125 62.386719 38.617188 64.375 43.566406 64.574219 L 43.566406 74.914062 C 41.601562 75.300781 40.113281 77.035156 40.113281 79.113281 C 40.113281 81.472656 42.03125 83.390625 44.390625 83.390625 C 46.753906 83.390625 48.671875 81.472656 48.671875 79.113281 C 48.671875 77.035156 47.183594 75.300781 45.21875 74.914062 L 45.21875 64.574219 C 50.167969 64.375 54.660156 62.386719 58.070312 59.242188 L 65.390625 66.558594 C 64.273438 68.222656 64.449219 70.5 65.917969 71.96875 C 66.75 72.804688 67.847656 73.222656 68.945312 73.222656 C 70.039062 73.222656 71.136719 72.804688 71.96875 71.96875 C 73.636719 70.300781 73.636719 67.585938 71.96875 65.917969 C 70.5 64.449219 68.222656 64.273438 66.558594 65.390625 L 59.242188 58.070312 C 62.386719 54.660156 64.375 50.167969 64.574219 45.21875 L 74.914062 45.21875 C 75.300781 47.183594 77.035156 48.671875 79.113281 48.671875 C 81.472656 48.671875 83.390625 46.753906 83.390625 44.390625 C 83.390625 42.03125 81.472656 40.113281 79.113281 40.113281 "/></g><path style=" stroke:none;fill-rule:nonzero;fill:#000000;fill-opacity:1;" d="M 44.265625 36.503906 C 45.773438 36.503906 47 37.730469 47 39.238281 C 47 40.746094 45.773438 41.976562 44.265625 41.976562 C 42.757812 41.976562 41.53125 40.746094 41.53125 39.238281 C 41.53125 37.730469 42.757812 36.503906 44.265625 36.503906 Z M 44.265625 43.628906 C 46.683594 43.628906 48.65625 41.660156 48.65625 39.238281 C 48.65625 36.820312 46.683594 34.847656 44.265625 34.847656 C 41.84375 34.847656 39.875 36.820312 39.875 39.238281 C 39.875 41.660156 41.84375 43.628906 44.265625 43.628906 "/><path style=" stroke:none;fill-rule:nonzero;fill:#000000;fill-opacity:1;" d="M 44.390625 45.539062 C 40.21875 45.539062 36.820312 48.933594 36.820312 53.109375 C 36.820312 53.566406 37.191406 53.9375 37.648438 53.9375 C 38.105469 53.9375 38.476562 53.566406 38.476562 53.109375 C 38.476562 49.847656 41.128906 47.191406 44.390625 47.191406 C 47.65625 47.191406 50.308594 49.847656 50.308594 53.109375 C 50.308594 53.566406 50.679688 53.9375 51.136719 53.9375 C 51.59375 53.9375 51.964844 53.566406 51.964844 53.109375 C 51.964844 48.933594 48.566406 45.539062 44.390625 45.539062 "/><g style="fill:#000000;fill-opacity:1;"><g transform="translate(60.419419, 40.163349)"><path style="stroke:none" d="M 0.84375 0.03125 C 0.625 0.03125 0.453125 -0.03125 0.328125 -0.15625 C 0.210938 -0.289062 0.15625 -0.472656 0.15625 -0.703125 C 0.15625 -0.941406 0.210938 -1.128906 0.328125 -1.265625 C 0.441406 -1.398438 0.59375 -1.46875 0.78125 -1.46875 C 0.957031 -1.46875 1.097656 -1.40625 1.203125 -1.28125 C 1.316406 -1.164062 1.375 -1.007812 1.375 -0.8125 L 1.375 -0.6875 L 0.375 -0.6875 C 0.382812 -0.507812 0.425781 -0.375 0.5 -0.28125 C 0.582031 -0.195312 0.695312 -0.15625 0.84375 -0.15625 C 1 -0.15625 1.15625 -0.191406 1.3125 -0.265625 L 1.3125 -0.0625 C 1.226562 -0.03125 1.148438 -0.0078125 1.078125 0 C 1.015625 0.0195312 0.9375 0.03125 0.84375 0.03125 Z M 0.78125 -1.28125 C 0.664062 -1.28125 0.570312 -1.242188 0.5 -1.171875 C 0.4375 -1.097656 0.394531 -0.992188 0.375 -0.859375 L 1.140625 -0.859375 C 1.140625 -0.992188 1.109375 -1.097656 1.046875 -1.171875 C 0.984375 -1.242188 0.894531 -1.28125 0.78125 -1.28125 Z M 0.78125 -1.28125 "/></g></g></g></svg>