<svg xmlns="http://www.w3.org/2000/svg" xmlns:xlink="http://www.w3.org/1999/xlink" width="120" zoomAndPan="magnify" viewBox="0 0 90 89.999999" height="120" preserveAspectRatio="xMidYMid meet" version="1.2"><defs><clipPath id="30a480495d"><path d="M 5.378906 22 L 78.878906 22 L 78.878906 84.3125 L 5.378906 84.3125 Z M 5.378906 22 "/></clipPath><clipPath id="2ff313db7f"><path d="M 46 5.5625 L 49 5.5625 L 49 15 L 46 15 Z M 46 5.5625 "/></clipPath></defs><g id="84c786d1aa"><g clip-rule="nonzero" clip-path="url(#30a480495d)"><path style=" stroke:none;fill-rule:nonzero;fill:#000000;fill-opacity:1;" d="M 78.195312 64.117188 L 67.875 55.386719 C 68.210938 54.761719 68.421875 54.070312 68.480469 53.339844 C 68.601562 51.9375 68.167969 50.570312 67.261719 49.5 C 66.601562 48.710938 65.738281 48.148438 64.773438 47.855469 C 66.207031 45.9375 66.191406 43.207031 64.585938 41.296875 C 63.890625 40.46875 62.972656 39.886719 61.941406 39.613281 C 63.089844 37.730469 62.972656 35.242188 61.476562 33.457031 C 60.644531 32.476562 59.503906 31.84375 58.238281 31.652344 C 58.816406 29.957031 58.523438 28.003906 57.289062 26.535156 C 56.386719 25.464844 55.117188 24.808594 53.710938 24.6875 C 52.300781 24.566406 50.945312 25.003906 49.875 25.90625 L 49.679688 26.070312 L 43.761719 23.304688 C 40.667969 21.695312 37.957031 22.960938 36.644531 24.925781 C 36.207031 25.578125 35.941406 26.285156 35.800781 26.996094 L 34.511719 25.90625 C 32.292969 24.03125 28.96875 24.320312 27.097656 26.535156 C 25.863281 28.003906 25.566406 29.957031 26.148438 31.652344 C 24.882812 31.84375 23.742188 32.472656 22.910156 33.460938 C 22.007812 34.535156 21.578125 35.898438 21.695312 37.300781 C 21.765625 38.136719 22.023438 38.921875 22.445312 39.613281 C 21.445312 39.878906 20.515625 40.445312 19.800781 41.296875 C 18.191406 43.207031 18.179688 45.9375 19.613281 47.855469 C 18.671875 48.140625 17.804688 48.691406 17.125 49.496094 C 15.695312 51.191406 15.53125 53.535156 16.515625 55.382812 L 6.191406 64.117188 C 5.65625 64.566406 5.585938 65.367188 6.039062 65.90625 C 6.289062 66.203125 6.648438 66.355469 7.011719 66.355469 C 7.300781 66.355469 7.589844 66.257812 7.828125 66.058594 L 18.1875 57.296875 L 22.34375 60.808594 C 23.296875 61.613281 24.484375 62.046875 25.722656 62.046875 C 25.875 62.046875 26.027344 62.039062 26.179688 62.027344 C 27.578125 61.90625 28.847656 61.25 29.75 60.179688 C 30.652344 59.109375 31.085938 57.746094 30.96875 56.339844 C 30.90625 55.597656 30.6875 54.898438 30.34375 54.261719 C 31.390625 54.007812 32.371094 53.441406 33.117188 52.558594 C 34.144531 51.335938 34.5 49.785156 34.261719 48.320312 C 34.261719 48.320312 34.265625 48.320312 34.265625 48.320312 C 35.742188 48.320312 37.199219 47.703125 38.199219 46.523438 C 39.128906 45.585938 39.613281 44.308594 39.550781 42.929688 C 39.550781 42.882812 39.535156 42.839844 39.53125 42.796875 C 39.738281 42.820312 39.945312 42.855469 40.15625 42.855469 C 40.308594 42.855469 40.460938 42.847656 40.613281 42.835938 C 42.015625 42.714844 43.285156 42.058594 44.113281 41.070312 C 45.050781 40.136719 45.535156 38.859375 45.476562 37.480469 C 45.425781 36.226562 44.917969 35.046875 44.09375 34.117188 L 51.507812 27.847656 C 52.058594 27.382812 52.761719 27.152344 53.496094 27.21875 C 54.222656 27.28125 54.882812 27.621094 55.347656 28.171875 C 56.316406 29.324219 56.167969 31.050781 55.019531 32.023438 L 54.0625 32.835938 C 53.527344 33.289062 53.460938 34.089844 53.914062 34.625 C 54.363281 35.160156 55.164062 35.226562 55.699219 34.773438 L 55.707031 34.769531 C 56.253906 34.308594 56.960938 34.089844 57.679688 34.144531 C 58.410156 34.207031 59.070312 34.542969 59.535156 35.097656 C 60.503906 36.25 60.355469 37.976562 59.207031 38.945312 L 57.175781 40.667969 C 57.175781 40.667969 57.171875 40.671875 57.171875 40.671875 C 56.636719 41.125 56.570312 41.925781 57.023438 42.460938 C 57.476562 42.996094 58.273438 43.0625 58.808594 42.609375 L 58.8125 42.609375 C 59.363281 42.140625 60.089844 41.921875 60.796875 41.980469 C 61.523438 42.042969 62.179688 42.378906 62.644531 42.933594 C 63.613281 44.082031 63.464844 45.8125 62.320312 46.78125 L 59.851562 48.867188 C 59.316406 49.320312 59.246094 50.121094 59.699219 50.65625 C 60.148438 51.195312 60.949219 51.265625 61.484375 50.808594 L 61.488281 50.808594 C 62.042969 50.34375 62.738281 50.125 63.472656 50.179688 C 64.199219 50.242188 64.855469 50.582031 65.324219 51.136719 C 65.789062 51.691406 66.011719 52.398438 65.953125 53.125 C 65.890625 53.855469 65.554688 54.515625 65 54.984375 L 53.476562 64.726562 C 48.773438 68.703125 44.898438 68.285156 39.070312 67.125 C 38.691406 67.042969 38.300781 67.148438 38.003906 67.398438 L 20.65625 82.070312 C 20.121094 82.523438 20.054688 83.324219 20.503906 83.863281 C 20.753906 84.160156 21.113281 84.3125 21.472656 84.3125 C 21.761719 84.3125 22.050781 84.214844 22.292969 84.011719 L 39.175781 69.730469 C 41.582031 70.195312 43.785156 70.519531 45.914062 70.441406 L 62.105469 84.015625 C 62.34375 84.214844 62.632812 84.3125 62.917969 84.3125 C 63.28125 84.3125 63.640625 84.15625 63.894531 83.859375 C 64.339844 83.320312 64.273438 82.519531 63.734375 82.070312 L 49.261719 69.933594 C 51.179688 69.390625 53.097656 68.375 55.113281 66.671875 L 66.203125 57.292969 L 76.558594 66.054688 C 76.800781 66.257812 77.089844 66.355469 77.378906 66.355469 C 77.738281 66.355469 78.097656 66.203125 78.347656 65.90625 C 78.796875 65.371094 78.730469 64.570312 78.195312 64.117188 Z M 38.886719 29.601562 C 37.925781 28.789062 38.101562 27.316406 38.753906 26.339844 C 39.078125 25.855469 40.304688 24.375 42.644531 25.582031 L 47.546875 27.875 L 42.195312 32.402344 L 38.898438 29.617188 L 38.890625 29.609375 C 38.886719 29.605469 38.890625 29.605469 38.886719 29.601562 Z M 27.8125 58.539062 C 27.347656 59.09375 26.691406 59.433594 25.964844 59.492188 C 25.230469 59.558594 24.53125 59.332031 23.980469 58.863281 L 19.386719 54.984375 C 18.238281 54.011719 18.09375 52.285156 19.0625 51.136719 C 20.023438 49.992188 21.726562 49.839844 22.875 50.792969 L 27.492188 54.695312 C 28.046875 55.160156 28.382812 55.820312 28.445312 56.550781 C 28.503906 57.28125 28.28125 57.984375 27.8125 58.539062 Z M 31.183594 50.917969 C 30.214844 52.066406 28.492188 52.214844 27.34375 51.246094 L 24.542969 48.878906 C 24.539062 48.878906 24.539062 48.871094 24.535156 48.867188 L 24.53125 48.867188 L 22.066406 46.78125 C 20.917969 45.808594 20.773438 44.082031 21.738281 42.933594 C 22.207031 42.378906 22.863281 42.042969 23.59375 41.980469 C 24.320312 41.917969 25.027344 42.140625 25.578125 42.609375 L 25.582031 42.613281 C 25.582031 42.613281 25.589844 42.613281 25.589844 42.617188 L 30.855469 47.070312 C 32.003906 48.042969 32.148438 49.769531 31.183594 50.917969 Z M 36.335938 44.804688 C 35.363281 45.953125 33.640625 46.101562 32.492188 45.128906 L 27.199219 40.652344 C 27.199219 40.652344 27.195312 40.652344 27.195312 40.652344 L 25.175781 38.945312 C 24.621094 38.476562 24.285156 37.816406 24.222656 37.085938 C 24.160156 36.359375 24.386719 35.648438 24.851562 35.097656 C 25.316406 34.542969 25.976562 34.207031 26.703125 34.144531 C 27.417969 34.078125 28.128906 34.304688 28.679688 34.765625 L 28.691406 34.773438 L 36.007812 40.957031 C 36.609375 41.46875 36.988281 42.246094 37.023438 43.035156 C 37.050781 43.699219 36.832031 44.300781 36.335938 44.804688 Z M 42.253906 39.347656 C 41.789062 39.902344 41.128906 40.238281 40.402344 40.300781 C 39.671875 40.371094 38.96875 40.140625 38.417969 39.675781 C 38.359375 39.625 38.300781 39.621094 38.25 39.652344 C 38.058594 39.429688 37.867188 39.207031 37.640625 39.015625 L 30.328125 32.832031 C 30.320312 32.828125 30.316406 32.824219 30.3125 32.820312 L 29.363281 32.019531 C 28.214844 31.050781 28.070312 29.320312 29.035156 28.171875 C 30.003906 27.027344 31.730469 26.875 32.878906 27.84375 L 34.609375 29.3125 C 34.613281 29.3125 34.613281 29.3125 34.613281 29.3125 L 37.367188 31.644531 L 38.21875 32.363281 L 41.933594 35.503906 C 42.535156 36.015625 42.914062 36.792969 42.945312 37.585938 C 42.972656 38.242188 42.753906 38.839844 42.253906 39.347656 Z M 42.253906 39.347656 "/></g><g clip-rule="nonzero" clip-path="url(#2ff313db7f)"><path style=" stroke:none;fill-rule:nonzero;fill:#000000;fill-opacity:1;" d="M 47.269531 14.785156 C 47.972656 14.785156 48.539062 14.214844 48.539062 13.511719 L 48.539062 6.832031 C 48.539062 6.128906 47.972656 5.5625 47.269531 5.5625 C 46.570312 5.5625 46.003906 6.128906 46.003906 6.832031 L 46.003906 13.511719 C 46.003906 14.214844 46.570312 14.785156 47.269531 14.785156 Z M 47.269531 14.785156 "/></g><path style=" stroke:none;fill-rule:nonzero;fill:#000000;fill-opacity:1;" d="M 64.066406 18.433594 C 64.457031 18.433594 64.84375 18.253906 65.09375 17.917969 L 69.035156 12.53125 C 69.449219 11.964844 69.328125 11.171875 68.761719 10.757812 C 68.195312 10.339844 67.40625 10.464844 66.992188 11.027344 L 63.046875 16.414062 C 62.632812 16.980469 62.753906 17.773438 63.320312 18.191406 C 63.546875 18.355469 63.808594 18.433594 64.066406 18.433594 Z M 64.066406 18.433594 "/><path style=" stroke:none;fill-rule:nonzero;fill:#000000;fill-opacity:1;" d="M 29.449219 17.917969 C 29.699219 18.257812 30.082031 18.433594 30.472656 18.433594 C 30.734375 18.433594 30.996094 18.355469 31.222656 18.1875 C 31.785156 17.773438 31.910156 16.980469 31.492188 16.414062 L 27.546875 11.027344 C 27.132812 10.464844 26.339844 10.34375 25.777344 10.757812 C 25.210938 11.171875 25.089844 11.964844 25.503906 12.53125 Z M 29.449219 17.917969 "/><g style="fill:#000000;fill-opacity:1;"><g transform="translate(60.419419, 40.163349)"><path style="stroke:none" d="M 0.84375 0.03125 C 0.625 0.03125 0.453125 -0.03125 0.328125 -0.15625 C 0.210938 -0.289062 0.15625 -0.472656 0.15625 -0.703125 C 0.15625 -0.941406 0.210938 -1.128906 0.328125 -1.265625 C 0.441406 -1.398438 0.59375 -1.46875 0.78125 -1.46875 C 0.957031 -1.46875 1.097656 -1.40625 1.203125 -1.28125 C 1.316406 -1.164062 1.375 -1.007812 1.375 -0.8125 L 1.375 -0.6875 L 0.375 -0.6875 C 0.382812 -0.507812 0.425781 -0.375 0.5 -0.28125 C 0.582031 -0.195312 0.695312 -0.15625 0.84375 -0.15625 C 1 -0.15625 1.15625 -0.191406 1.3125 -0.265625 L 1.3125 -0.0625 C 1.226562 -0.03125 1.148438 -0.0078125 1.078125 0 C 1.015625 0.0195312 0.9375 0.03125 0.84375 0.03125 Z M 0.78125 -1.28125 C 0.664062 -1.28125 0.570312 -1.242188 0.5 -1.171875 C 0.4375 -1.097656 0.394531 -0.992188 0.375 -0.859375 L 1.140625 -0.859375 C 1.140625 -0.992188 1.109375 -1.097656 1.046875 -1.171875 C 0.984375 -1.242188 0.894531 -1.28125 0.78125 -1.28125 Z M 0.78125 -1.28125 "/></g></g></g></svg>