<svg xmlns="http://www.w3.org/2000/svg" xmlns:xlink="http://www.w3.org/1999/xlink" width="120" zoomAndPan="magnify" viewBox="0 0 90 89.999999" height="120" preserveAspectRatio="xMidYMid meet" version="1.2"><defs><clipPath id="a180f80af3"><path d="M 1.601562 25 L 88.601562 25 L 88.601562 74.441406 L 1.601562 74.441406 Z M 1.601562 25 "/></clipPath><clipPath id="991e0deee4"><path d="M 1.601562 16 L 35 16 L 35 51 L 1.601562 51 Z M 1.601562 16 "/></clipPath><clipPath id="4e0f79ac57"><path d="M 18 15.191406 L 81 15.191406 L 81 60 L 18 60 Z M 18 15.191406 "/></clipPath></defs><g id="dac19670c2"><rect x="0" width="90" y="0" height="89.999999" style="fill:#ffffff;fill-opacity:1;stroke:none;"/><rect x="0" width="90" y="0" height="89.999999" style="fill:#ffffff;fill-opacity:1;stroke:none;"/><g clip-rule="nonzero" clip-path="url(#a180f80af3)"><path style=" stroke:none;fill-rule:nonzero;fill:#000000;fill-opacity:1;" d="M 87.246094 69.722656 L 79.085938 62.980469 C 78.953125 62.914062 78.882812 62.847656 78.75 62.777344 C 78.75 62.644531 78.816406 62.507812 78.816406 62.375 L 78.816406 27.996094 C 78.816406 26.582031 77.738281 25.503906 76.390625 25.300781 L 73.691406 27.996094 L 76.050781 27.996094 L 76.050781 62.375 L 14.085938 62.375 L 14.085938 46.464844 C 13.546875 46.265625 13.074219 45.996094 12.535156 45.726562 L 11.390625 46.871094 L 11.390625 62.375 C 11.390625 62.507812 11.390625 62.644531 11.457031 62.777344 C 11.320312 62.847656 11.253906 62.914062 11.117188 62.980469 L 2.960938 69.722656 C 2.082031 70.460938 1.746094 71.609375 2.152344 72.6875 C 2.554688 73.765625 3.566406 74.441406 4.714844 74.441406 L 85.625 74.441406 C 86.773438 74.441406 87.785156 73.699219 88.1875 72.6875 C 88.457031 71.675781 88.121094 70.460938 87.246094 69.722656 Z M 4.644531 71.8125 L 12.804688 65.070312 L 77.402344 65.070312 L 85.558594 71.8125 Z M 4.644531 71.8125 "/></g><g clip-rule="nonzero" clip-path="url(#991e0deee4)"><path style=" stroke:none;fill-rule:nonzero;fill:#000000;fill-opacity:1;" d="M 3.296875 50.578125 C 3.632812 50.578125 3.972656 50.441406 4.242188 50.171875 L 12.199219 42.21875 C 14.691406 44.105469 17.660156 45.183594 20.828125 45.183594 C 24.605469 45.183594 28.179688 43.703125 30.808594 41.007812 C 36.335938 35.480469 36.335938 26.515625 30.808594 20.988281 C 28.109375 18.289062 24.605469 16.808594 20.828125 16.808594 C 17.050781 16.808594 13.480469 18.289062 10.847656 20.988281 C 5.523438 26.3125 5.320312 34.871094 10.242188 40.398438 L 2.351562 48.285156 C 1.8125 48.824219 1.8125 49.632812 2.351562 50.171875 C 2.625 50.441406 2.960938 50.578125 3.296875 50.578125 Z M 12.738281 22.941406 C 14.960938 20.71875 17.929688 19.570312 20.828125 19.570312 C 23.796875 19.570312 26.695312 20.71875 28.921875 22.941406 C 33.371094 27.390625 33.371094 34.671875 28.921875 39.117188 C 26.695312 41.34375 23.726562 42.488281 20.828125 42.488281 C 17.863281 42.488281 14.960938 41.34375 12.738281 39.117188 C 8.21875 34.671875 8.21875 27.390625 12.738281 22.941406 Z M 12.738281 22.941406 "/></g><g clip-rule="nonzero" clip-path="url(#4e0f79ac57)"><path style=" stroke:none;fill-rule:nonzero;fill:#000000;fill-opacity:1;" d="M 27.570312 48.21875 C 27.234375 48.21875 26.898438 48.355469 26.628906 48.625 L 20.828125 55.09375 L 20.828125 47.882812 C 19.882812 47.882812 19.007812 47.8125 18.132812 47.679688 L 18.132812 58.328125 C 18.132812 59.070312 18.738281 59.679688 19.480469 59.679688 L 72.074219 59.679688 C 72.816406 59.679688 73.421875 59.070312 73.421875 58.328125 C 73.421875 57.589844 72.816406 56.980469 72.074219 56.980469 L 71.398438 56.980469 L 71.398438 40.128906 C 71.398438 38.648438 70.1875 37.433594 68.703125 37.433594 L 66.003906 37.433594 C 64.523438 37.433594 63.308594 38.648438 63.308594 40.128906 L 63.308594 56.980469 L 60.609375 56.980469 L 60.609375 45.523438 C 60.609375 44.039062 59.398438 42.828125 57.914062 42.828125 L 55.21875 42.828125 C 53.734375 42.828125 52.519531 44.039062 52.519531 45.523438 L 52.519531 56.980469 L 49.824219 56.980469 L 49.824219 50.914062 C 49.824219 49.433594 48.609375 48.21875 47.125 48.21875 L 44.429688 48.21875 C 42.945312 48.21875 41.730469 49.433594 41.730469 50.914062 L 41.730469 56.980469 L 22.714844 56.980469 L 28.109375 50.914062 L 37.011719 50.914062 C 37.347656 50.914062 37.6875 50.78125 37.957031 50.511719 L 51.710938 36.757812 L 60.609375 36.757812 C 60.949219 36.757812 61.285156 36.625 61.554688 36.355469 L 78.140625 19.773438 L 78.140625 21.257812 C 78.140625 21.996094 78.75 22.605469 79.492188 22.605469 C 80.234375 22.605469 80.839844 21.996094 80.839844 21.257812 L 80.839844 16.539062 C 80.839844 16.539062 80.839844 16.46875 80.839844 16.46875 C 80.839844 16.46875 80.839844 16.402344 80.839844 16.402344 C 80.839844 16.269531 80.773438 16.199219 80.773438 16.066406 C 80.703125 15.929688 80.636719 15.863281 80.570312 15.730469 C 80.570312 15.730469 80.503906 15.660156 80.503906 15.660156 C 80.433594 15.59375 80.367188 15.527344 80.234375 15.390625 C 80.164062 15.324219 80.03125 15.257812 79.894531 15.257812 C 79.894531 15.257812 79.828125 15.257812 79.828125 15.257812 C 79.691406 15.257812 79.625 15.191406 79.492188 15.191406 L 74.097656 15.191406 C 73.355469 15.191406 72.75 15.796875 72.75 16.539062 C 72.75 17.28125 73.355469 17.886719 74.097656 17.886719 L 76.253906 17.886719 L 60.070312 34.0625 L 51.171875 34.0625 C 50.835938 34.0625 50.496094 34.199219 50.226562 34.46875 L 36.472656 48.21875 Z M 66.003906 40.128906 L 68.703125 40.128906 L 68.703125 56.980469 L 66.003906 56.980469 Z M 55.21875 45.523438 L 57.914062 45.523438 L 57.914062 56.980469 L 55.21875 56.980469 Z M 44.429688 50.914062 L 47.125 50.914062 L 47.125 56.980469 L 44.429688 56.980469 Z M 44.429688 50.914062 "/></g><path style=" stroke:none;fill-rule:nonzero;fill:#000000;fill-opacity:1;" d="M 64.992188 25.300781 L 36.675781 25.300781 C 37.011719 26.175781 37.214844 27.054688 37.414062 27.996094 L 62.296875 27.996094 Z M 64.992188 25.300781 "/><g style="fill:#000000;fill-opacity:1;"><g transform="translate(65.060812, 41.8555)"><path style="stroke:none" d="M 2.390625 0.078125 C 1.785156 0.078125 1.304688 -0.101562 0.953125 -0.46875 C 0.609375 -0.84375 0.4375 -1.359375 0.4375 -2.015625 C 0.4375 -2.679688 0.597656 -3.207031 0.921875 -3.59375 C 1.242188 -3.988281 1.679688 -4.1875 2.234375 -4.1875 C 2.742188 -4.1875 3.148438 -4.015625 3.453125 -3.671875 C 3.753906 -3.335938 3.90625 -2.890625 3.90625 -2.328125 L 3.90625 -1.9375 L 1.078125 -1.9375 C 1.085938 -1.457031 1.207031 -1.09375 1.4375 -0.84375 C 1.664062 -0.59375 1.992188 -0.46875 2.421875 -0.46875 C 2.859375 -0.46875 3.296875 -0.5625 3.734375 -0.75 L 3.734375 -0.1875 C 3.503906 -0.09375 3.289062 -0.0234375 3.09375 0.015625 C 2.90625 0.0546875 2.671875 0.078125 2.390625 0.078125 Z M 2.21875 -3.65625 C 1.894531 -3.65625 1.632812 -3.546875 1.4375 -3.328125 C 1.238281 -3.117188 1.125 -2.828125 1.09375 -2.453125 L 3.234375 -2.453125 C 3.234375 -2.835938 3.144531 -3.132812 2.96875 -3.34375 C 2.800781 -3.550781 2.550781 -3.65625 2.21875 -3.65625 Z M 2.21875 -3.65625 "/></g></g></g></svg>