<svg xmlns="http://www.w3.org/2000/svg" xmlns:xlink="http://www.w3.org/1999/xlink" width="120" zoomAndPan="magnify" viewBox="0 0 90 89.999999" height="120" preserveAspectRatio="xMidYMid meet" version="1.2"><defs><clipPath id="77404a80c4"><path d="M 9 2.832031 L 80.25 2.832031 L 80.25 86.082031 L 9 86.082031 Z M 9 2.832031 "/></clipPath></defs><g id="bde17d40a4"><g clip-rule="nonzero" clip-path="url(#77404a80c4)"><path style=" stroke:none;fill-rule:nonzero;fill:#000000;fill-opacity:1;" d="M 44.625 86.058594 C 44.382812 86.058594 44.152344 86.011719 43.929688 85.921875 C 9.679688 70.945312 9.015625 19.566406 9.015625 17.382812 C 9.015625 17.152344 9.0625 16.929688 9.148438 16.71875 C 9.238281 16.507812 9.363281 16.320312 9.527344 16.15625 C 9.6875 15.996094 9.878906 15.867188 10.089844 15.78125 C 10.304688 15.691406 10.523438 15.648438 10.753906 15.648438 C 27.90625 15.5625 43.21875 3.359375 43.355469 3.238281 C 43.671875 2.984375 44.03125 2.859375 44.433594 2.855469 L 44.816406 2.855469 C 45.226562 2.855469 45.589844 2.980469 45.910156 3.238281 C 46.050781 3.359375 61.359375 15.5625 78.511719 15.648438 C 78.742188 15.648438 78.964844 15.691406 79.175781 15.78125 C 79.390625 15.867188 79.578125 15.996094 79.742188 16.15625 C 79.902344 16.320312 80.03125 16.507812 80.117188 16.71875 C 80.207031 16.929688 80.25 17.152344 80.25 17.382812 C 80.25 19.566406 79.589844 70.945312 45.335938 85.921875 C 45.109375 86.011719 44.871094 86.058594 44.625 86.058594 Z M 12.546875 19.0625 C 12.960938 27.972656 16.4375 69.472656 44.625 82.417969 C 72.8125 69.472656 76.289062 27.972656 76.703125 19.0625 C 61.324219 18.320312 48.101562 9.269531 44.625 6.636719 C 41.148438 9.269531 27.925781 18.320312 12.546875 19.0625 Z M 12.546875 19.0625 "/></g><path style=" stroke:none;fill-rule:nonzero;fill:#000000;fill-opacity:1;" d="M 44.625 74.828125 C 44.382812 74.832031 44.152344 74.789062 43.929688 74.6875 C 19.027344 63.820312 18.558594 26.585938 18.558594 25.007812 C 18.558594 24.78125 18.601562 24.558594 18.691406 24.347656 C 18.777344 24.132812 18.902344 23.945312 19.066406 23.785156 C 19.230469 23.621094 19.417969 23.496094 19.628906 23.40625 C 19.84375 23.320312 20.066406 23.277344 20.296875 23.277344 C 32.460938 23.277344 43.304688 14.609375 43.410156 14.46875 C 43.726562 14.214844 44.09375 14.085938 44.503906 14.089844 L 44.78125 14.089844 C 45.191406 14.085938 45.554688 14.214844 45.875 14.46875 C 45.980469 14.558594 56.839844 23.136719 68.988281 23.277344 C 69.21875 23.277344 69.441406 23.320312 69.652344 23.40625 C 69.867188 23.496094 70.054688 23.621094 70.21875 23.785156 C 70.378906 23.945312 70.507812 24.132812 70.59375 24.347656 C 70.683594 24.558594 70.726562 24.78125 70.726562 25.007812 C 70.726562 26.585938 70.257812 63.820312 45.355469 74.6875 C 45.121094 74.792969 44.878906 74.839844 44.625 74.828125 Z M 22.035156 26.671875 C 22.433594 33.867188 25.230469 62.105469 44.625 71.203125 C 64 62.105469 66.765625 33.867188 67.214844 26.671875 C 56.632812 25.996094 47.578125 20.015625 44.625 17.886719 C 41.722656 20.015625 32.667969 25.996094 22.035156 26.671875 Z M 22.035156 26.671875 "/><path style=" stroke:none;fill-rule:nonzero;fill:#000000;fill-opacity:1;" d="M 52.082031 43.003906 L 37.167969 43.003906 C 36.9375 43.003906 36.71875 42.957031 36.503906 42.871094 C 36.292969 42.78125 36.105469 42.65625 35.941406 42.496094 C 35.777344 42.332031 35.652344 42.144531 35.5625 41.933594 C 35.476562 41.71875 35.433594 41.5 35.433594 41.269531 L 35.433594 37.800781 C 35.4375 37.210938 35.5 36.628906 35.621094 36.050781 C 35.742188 35.476562 35.914062 34.914062 36.144531 34.371094 C 36.375 33.828125 36.65625 33.3125 36.988281 32.824219 C 37.320312 32.339844 37.695312 31.886719 38.113281 31.472656 C 38.535156 31.058594 38.992188 30.6875 39.484375 30.363281 C 39.976562 30.035156 40.496094 29.761719 41.042969 29.535156 C 41.585938 29.3125 42.152344 29.144531 42.730469 29.027344 C 43.308594 28.914062 43.894531 28.859375 44.484375 28.859375 L 44.765625 28.859375 C 45.359375 28.859375 45.949219 28.914062 46.53125 29.03125 C 47.113281 29.148438 47.679688 29.316406 48.230469 29.546875 C 48.777344 29.773438 49.300781 30.050781 49.792969 30.378906 C 50.289062 30.707031 50.746094 31.082031 51.167969 31.503906 C 51.585938 31.921875 51.960938 32.378906 52.292969 32.871094 C 52.621094 33.363281 52.902344 33.882812 53.128906 34.433594 C 53.355469 34.980469 53.527344 35.546875 53.644531 36.125 C 53.761719 36.707031 53.816406 37.296875 53.816406 37.886719 L 53.816406 41.355469 C 53.808594 41.578125 53.753906 41.789062 53.660156 41.992188 C 53.570312 42.195312 53.441406 42.371094 53.277344 42.523438 C 53.117188 42.679688 52.933594 42.796875 52.726562 42.878906 C 52.519531 42.960938 52.304688 43.003906 52.082031 43.003906 Z M 38.90625 39.535156 L 50.34375 39.535156 L 50.34375 37.800781 C 50.335938 37.441406 50.296875 37.082031 50.21875 36.730469 C 50.144531 36.375 50.035156 36.03125 49.894531 35.699219 C 49.75 35.367188 49.578125 35.050781 49.371094 34.753906 C 49.167969 34.453125 48.9375 34.175781 48.679688 33.921875 C 48.417969 33.667969 48.140625 33.441406 47.835938 33.242188 C 47.535156 33.042969 47.214844 32.875 46.878906 32.738281 C 46.542969 32.601562 46.199219 32.5 45.839844 32.429688 C 45.484375 32.359375 45.125 32.324219 44.765625 32.324219 L 44.484375 32.324219 C 44.121094 32.324219 43.757812 32.359375 43.398438 32.429688 C 43.039062 32.503906 42.691406 32.609375 42.351562 32.746094 C 42.011719 32.886719 41.691406 33.058594 41.386719 33.261719 C 41.082031 33.464844 40.800781 33.695312 40.542969 33.953125 C 40.28125 34.210938 40.050781 34.492188 39.847656 34.796875 C 39.644531 35.101562 39.472656 35.421875 39.332031 35.757812 C 39.191406 36.097656 39.085938 36.445312 39.015625 36.804688 C 38.941406 37.160156 38.90625 37.523438 38.90625 37.886719 Z M 38.90625 39.535156 "/><path style=" stroke:none;fill-rule:nonzero;fill:#000000;fill-opacity:1;" d="M 53.941406 57.335938 L 35.308594 57.335938 C 35.078125 57.335938 34.859375 57.292969 34.644531 57.207031 C 34.433594 57.117188 34.246094 56.992188 34.082031 56.828125 C 33.917969 56.667969 33.792969 56.480469 33.703125 56.265625 C 33.617188 56.054688 33.574219 55.832031 33.574219 55.605469 L 33.574219 41.269531 C 33.574219 41.039062 33.617188 40.816406 33.703125 40.605469 C 33.792969 40.394531 33.917969 40.207031 34.082031 40.042969 C 34.246094 39.878906 34.433594 39.753906 34.644531 39.667969 C 34.859375 39.578125 35.078125 39.535156 35.308594 39.535156 L 53.941406 39.535156 C 54.171875 39.535156 54.390625 39.578125 54.605469 39.667969 C 54.816406 39.753906 55.003906 39.878906 55.167969 40.042969 C 55.332031 40.207031 55.457031 40.394531 55.546875 40.605469 C 55.632812 40.816406 55.675781 41.039062 55.675781 41.269531 L 55.675781 55.605469 C 55.675781 55.832031 55.632812 56.054688 55.546875 56.265625 C 55.457031 56.480469 55.332031 56.667969 55.167969 56.828125 C 55.003906 56.992188 54.816406 57.117188 54.605469 57.207031 C 54.390625 57.292969 54.171875 57.335938 53.941406 57.335938 Z M 37.046875 53.871094 L 52.203125 53.871094 L 52.203125 43.003906 L 37.046875 43.003906 Z M 37.046875 53.871094 "/><g style="fill:#000000;fill-opacity:1;"><g transform="translate(65.060812, 41.8555)"><path style="stroke:none" d="M 2.390625 0.078125 C 1.785156 0.078125 1.304688 -0.101562 0.953125 -0.46875 C 0.609375 -0.84375 0.4375 -1.359375 0.4375 -2.015625 C 0.4375 -2.679688 0.597656 -3.207031 0.921875 -3.59375 C 1.242188 -3.988281 1.679688 -4.1875 2.234375 -4.1875 C 2.742188 -4.1875 3.148438 -4.015625 3.453125 -3.671875 C 3.753906 -3.335938 3.90625 -2.890625 3.90625 -2.328125 L 3.90625 -1.9375 L 1.078125 -1.9375 C 1.085938 -1.457031 1.207031 -1.09375 1.4375 -0.84375 C 1.664062 -0.59375 1.992188 -0.46875 2.421875 -0.46875 C 2.859375 -0.46875 3.296875 -0.5625 3.734375 -0.75 L 3.734375 -0.1875 C 3.503906 -0.09375 3.289062 -0.0234375 3.09375 0.015625 C 2.90625 0.0546875 2.671875 0.078125 2.390625 0.078125 Z M 2.21875 -3.65625 C 1.894531 -3.65625 1.632812 -3.546875 1.4375 -3.328125 C 1.238281 -3.117188 1.125 -2.828125 1.09375 -2.453125 L 3.234375 -2.453125 C 3.234375 -2.835938 3.144531 -3.132812 2.96875 -3.34375 C 2.800781 -3.550781 2.550781 -3.65625 2.21875 -3.65625 Z M 2.21875 -3.65625 "/></g></g></g></svg>